# xmcd
#
# Track frame offsets: 
#        150
#        18954
#        40281
#        60582
#        79274
#        101450
#        119093
#        140488
#
# Disc length: 1952 seconds
#
# Revision: 0
# Processed by: cddbd v1.5.2PL0 Copyright (c) Steve Scherf et al.
# Submitted via: ExactAudioCopy v1.0b3
#
DISCID=68079e08
DTITLE=Cory Morrow - Acoustic Live at Billy Bob?s Texas
DYEAR=2012
DGENRE=Country
TTITLE0=Beat Of Your Heart
TTITLE1=He Carries Me
TTITLE2=The Way I Do
TTITLE3=Love Finds Everyone
TTITLE4=Just Like You (Grandpa's Song)
TTITLE5=GTMO Blues
TTITLE6=Big City Stripper
TTITLE7=America, the Beautiful
EXTD=
EXTT0=
EXTT1=
EXTT2=
EXTT3=
EXTT4=
EXTT5=
EXTT6=
EXTT7=
PLAYORDER=
